                ::::::::::: ::::    ::::      :::      :::::::: ::::::::::: ::::    ::: ::::::::::
                    :+:     +:+:+: :+:+:+   :+: :+:   :+:    :+:    :+:     :+:+:   :+: :+:        
                    +:+     +:+ +:+:+ +:+  +:+   +:+  +:+           +:+     :+:+:+  +:+ +:+        
                    +#+     +#+  +:+  +#+ +#++:++#++: :#:           +#+     +#+ +:+ +#+ +#++:++#  
                    +#+     +#+       +#+ +#+     +#+ +#+   +#+#    +#+     +#+  +#+#+# +#+        
                    #+#     #+#       #+# #+#     #+# #+#    #+#    #+#     #+#   #+#+# #+#        
                ########### ###       ### ###     ###  ######## ########### ###    #### ##########  
                                             



                         Another Fine Release Brought to you from - IMAGiNE                  
                                            http://imaginegroup.me/  
 
********************************************************************************************************************                       Gamer.2009.WORKPRINT.XviD.AC3.READNFO - IMAGiNE
********************************************************************************************************************

Ripper ...........: IMAGiNE                                      IMDB Rating.......:6.1/10                            
Video Codec.......:XVID                                          Release Date......:03/11/09
Audio Codec.......:AC-3                                          Theatre Date......:04/09/09
Audio Bitrate.....:224                                           Runtime...........:1h 30mn
Subtitles.........:NIL                                           Language..........:ENGLISH
Resolution........: 672 x 384                                      
IMDb URL..........:http://www.imdb.com/title/tt1034032/


DETAILS:
General
Complete name                    : Cocuments and SettingsGamer.2009.WORKPRINT.XviD.READNFO-IMAGiNE.avi
Format                           : AVI
Format/Info                      : Audio Video Interleave
File size                        : 1.24 GiB
Duration                         : 1h 30mn
Overall bit rate                 : 1 959 Kbps
Writing library                  : VirtualDub build 32618/release

Video
ID                               : 0
Format                           : MPEG-4 Visual
Format profile                   : AdvancedSimple@L5
Format settings, BVOP            : Yes
Format settings, QPel            : No
Format settings, GMC             : No warppoints
Format settings, Matrix          : Default (MPEG)
Codec ID                         : XVID
Codec ID/Hint                    : XviD
Duration                         : 1h 30mn
Bit rate                         : 1 726 Kbps
Width                            : 672 pixels
Height                           : 384 pixels
Display aspect ratio             : 16:9
Frame rate                       : 25.000 fps
Resolution                       : 24 bits
Colorimetry                      : 4:2:0
Scan type                        : Progressive
Bits/(Pixel*Frame)               : 0.268
Stream size                      : 1.09 GiB (88%)
Writing library                  : XviD 1.2.1 (UTC 2008-12-04)

Audio
ID                               : 1
Format                           : AC-3
Format/Info                      : Audio Coding 3
Codec ID                         : 2000
Duration                         : 1h 30mn
Bit rate mode                    : Constant
Bit rate                         : 224 Kbps
Channel(s)                       : 2 channels
Channel positions                : L R
Sampling rate                    : 48.0 KHz
Stream size                      : 146 MiB (11%)
Alignment                        : Aligned on interleaves
Interleave, duration             : 40 ms (1.00 video frame)
Interleave, preload duration     : 512 ms



NOTES:

IMAGiNE bringing you another release.....
This time we bring you a workprint of Gamer 2009.....
This workprint source was from UCR so thanks for the files, not much was done to this source. Ran a few filters on it. Also left it with the original AC3 audio for the best audio. We have left the timers in this release, as some people seem to not like the blurring that get done with some releases. We are working on a blurred version as well.
Enjoy...
Remember that it is a WORKPRINT so its most possible that the movie might have some missing special effects or even scenes.
 
http://moviefox.org


SCREENS:
 
http://lookpic.com/i/456/o7zfRP4f.png 
http://lookpic.com/i/780/iooJ2e8U.png 
http://lookpic.com/i/241/lK5QQ9Cm.png